<?xml version="1.0" standalone="no"?>
<!DOCTYPE svg PUBLIC "-//W3C//DTD SVG 20010904//EN"
 "http://www.w3.org/TR/2001/REC-SVG-20010904/DTD/svg10.dtd">
<svg version="1.0" xmlns="http://www.w3.org/2000/svg"
 width="271.000000pt" height="298.000000pt" viewBox="0 0 271.000000 298.000000"
 preserveAspectRatio="xMidYMid meet">

<g transform="translate(0.000000,298.000000) scale(0.100000,-0.100000)"
fill="#000000" stroke="none">
<path d="M1040 2819 c-248 -28 -597 -120 -822 -218 l-48 -20 0 -764 0 -763 30
-88 c100 -295 336 -569 609 -705 192 -96 321 -126 541 -126 148 1 176 4 273
28 179 47 324 118 457 225 191 154 323 339 414 582 l36 95 0 756 0 756 -72 30
c-222 93 -548 180 -778 208 -135 16 -508 19 -640 4z m710 -163 c170 -26 412
-89 550 -144 l75 -30 3 -698 c2 -781 8 -715 -73 -888 -77 -165 -189 -303 -334
-411 -357 -269 -829 -283 -1201 -36 -185 123 -331 308 -421 533 l-39 99 2 701
3 701 85 33 c187 72 467 136 710 163 144 16 453 5 640 -23z"/>
<path d="M1128 2573 l-48 -4 0 -350 0 -349 -320 0 -320 0 0 264 0 265 57 21
c75 28 245 77 347 100 45 10 72 19 61 19 -62 3 -475 -121 -475 -142 0 -7 0
-306 0 -664 l0 -653 40 -91 c134 -309 397 -528 705 -586 123 -24 324 -13 435
22 292 94 523 318 634 615 14 39 17 98 19 438 l2 392 -325 0 -326 0 1 338 0
337 40 5 c31 4 13 8 -76 18 -106 11 -338 14 -451 5z m405 -10 l67 -6 0 -343 0
-344 -255 0 -255 0 0 344 0 345 43 4 c75 7 330 7 400 0z m134 -779 c35 -48 -3
-174 -53 -174 -30 0 -31 -12 -1 -25 19 -8 22 -18 22 -60 0 -27 -3 -69 -7 -92
-6 -43 -6 -43 25 -43 19 0 45 10 62 24 25 20 31 21 43 10 7 -8 12 -24 10 -36
-2 -18 -15 -26 -68 -40 -36 -9 -79 -17 -97 -18 -38 0 -53 -22 -53 -75 0 -28 9
-48 39 -83 21 -26 53 -75 71 -109 31 -62 32 -63 17 -110 -22 -68 -37 -223 -27
-264 17 -68 24 -84 41 -107 10 -13 15 -30 12 -38 -6 -16 -19 -18 -27 -5 -3 5
-37 28 -76 51 -38 23 -70 47 -70 52 0 5 10 18 23 28 21 17 22 26 22 142 0 67
4 129 8 136 16 24 -5 53 -81 109 -42 31 -79 60 -80 65 -2 5 -20 -6 -40 -23
-20 -18 -70 -47 -110 -66 l-75 -34 -40 21 c-51 27 -181 68 -238 76 -40 5 -49
2 -101 -35 -61 -44 -78 -50 -78 -25 0 17 69 164 78 164 2 0 21 -10 40 -22 28
-17 57 -23 141 -28 72 -4 116 -11 138 -23 18 -9 38 -17 45 -17 16 0 128 107
128 122 0 6 11 31 24 57 13 25 29 80 36 121 6 41 13 85 17 98 5 21 2 22 -46
22 l-51 0 -2 -42 c-2 -69 2 -101 18 -136 17 -36 16 -73 -2 -79 -6 -2 -25 8
-42 22 -28 23 -30 29 -21 53 8 19 6 50 -8 115 -13 64 -15 92 -7 105 15 24 73
41 177 52 103 10 129 26 126 75 -3 54 1 71 22 94 18 19 29 22 63 18 22 -3 46
-14 53 -23z"/>
<path d="M1407 2300 c-48 -15 -94 -33 -102 -40 -11 -9 -15 -36 -15 -111 l0
-99 -34 0 c-34 0 -86 -39 -86 -64 0 -49 73 -66 115 -26 22 21 25 32 27 119 l3
96 65 21 c36 11 77 24 93 28 l27 6 0 -70 0 -70 -33 0 c-42 0 -77 -25 -77 -55
0 -25 33 -55 61 -55 10 0 31 12 48 26 l31 26 0 137 c0 93 -4 141 -12 149 -14
14 -4 16 -111 -18z"/>
<path d="M1003 2553 c9 -2 25 -2 35 0 9 3 1 5 -18 5 -19 0 -27 -2 -17 -5z"/>
<path d="M943 2543 c9 -2 23 -2 30 0 6 3 -1 5 -18 5 -16 0 -22 -2 -12 -5z"/>
<path d="M1750 2538 c25 -5 101 -22 169 -39 68 -16 126 -28 128 -26 8 9 -289
78 -326 76 -9 -1 4 -5 29 -11z"/>
<path d="M2136 2441 c134 -47 123 -30 127 -194 l3 -142 -1 150 0 150 -90 32
c-49 17 -97 32 -105 32 -8 0 21 -13 66 -28z"/>
<path d="M564 2273 c-26 -40 -84 -246 -78 -280 5 -31 28 -53 56 -53 18 0 87
84 88 106 0 7 16 15 35 18 20 4 41 16 48 26 12 21 77 29 77 10 0 -12 55 -41
63 -34 3 4 21 -15 39 -42 66 -95 97 -108 124 -51 15 31 14 39 -15 152 -18 65
-38 126 -46 135 -8 9 -15 22 -15 28 0 22 -54 13 -78 -13 -21 -22 -31 -24 -106
-24 -76 0 -86 2 -106 25 -31 32 -63 31 -86 -3z"/>
<path d="M751 2284 c0 -11 3 -14 6 -6 3 7 2 16 -1 19 -3 4 -6 -2 -5 -13z"/>
<path d="M1915 2267 c-26 -62 -28 -84 -9 -112 10 -15 20 -43 24 -63 6 -30 8
-33 14 -17 4 11 16 38 27 60 24 51 24 76 -1 125 -25 49 -37 50 -55 7z"/>
<path d="M2074 2234 c-67 -44 -110 -113 -123 -194 l-8 -47 58 59 c31 32 64 58
73 58 8 0 20 9 25 19 11 21 27 131 19 131 -3 0 -23 -12 -44 -26z"/>
<path d="M1760 2216 c0 -58 19 -95 59 -116 21 -10 55 -38 76 -61 l38 -43 -7
44 c-7 46 -36 114 -58 140 -26 30 -80 70 -94 70 -9 0 -14 -11 -14 -34z"/>
<path d="M1647 2100 c3 -11 25 -37 48 -59 49 -45 130 -74 196 -69 l41 3 -41
47 c-54 61 -129 98 -197 98 -47 0 -52 -2 -47 -20z"/>
<path d="M2082 2094 c-28 -14 -70 -47 -93 -72 l-41 -47 42 -3 c70 -5 148 26
203 80 26 26 47 52 47 58 0 21 -104 11 -158 -16z"/>
<path d="M2264 1995 c0 -60 1 -84 3 -52 2 32 2 81 0 110 -2 29 -3 3 -3 -58z"/>
</g>
</svg>
